<svg width="81" height="81" viewBox="0 0 81 81" fill="none" xmlns="http://www.w3.org/2000/svg">
<path d="M22.8318 38.9154C22.8318 39.9128 22.9331 40.7228 23.1254 41.3201C23.3381 41.9124 23.6114 42.5604 23.9861 43.2641C24.1056 43.45 24.1705 43.6658 24.1734 43.8868C24.1734 44.1551 24.0114 44.4285 23.6671 44.6968L21.9661 45.8308C21.7619 45.9782 21.5191 46.0627 21.2675 46.0738C20.9941 46.0738 20.7258 45.9422 20.4575 45.6992C20.0936 45.3077 19.7682 44.8822 19.4855 44.4285C19.1861 43.9091 18.9091 43.377 18.6553 42.8338C16.5493 45.3195 13.9117 46.5649 10.7324 46.5649C8.46951 46.5649 6.66219 45.9118 5.34594 44.6158C4.02463 43.3198 3.35132 41.5884 3.35132 39.4268C3.35132 37.1284 4.16132 35.2654 5.80157 33.858C7.44688 32.4506 9.62882 31.752 12.4031 31.752C13.3143 31.752 14.261 31.833 15.2583 31.9646C16.2556 32.1013 17.2833 32.319 18.3566 32.562V30.5876C18.3566 28.5323 17.9263 27.0996 17.0909 26.2643C16.2303 25.4239 14.7723 25.0189 12.6967 25.0189C11.7551 25.0189 10.7881 25.1303 9.79082 25.3733C8.79995 25.6091 7.82717 25.9153 6.87988 26.2896C6.57404 26.428 6.2595 26.5464 5.93826 26.6439C5.79905 26.6899 5.65434 26.7172 5.50794 26.7249C5.12826 26.7249 4.94094 26.4516 4.94094 25.8846V24.5582C4.94094 24.1279 4.99157 23.7988 5.12826 23.6166C5.33226 23.3682 5.5926 23.1721 5.88763 23.0445C6.82419 22.5585 7.95819 22.1535 9.27951 21.8295C10.5958 21.4751 11.9981 21.3182 13.4814 21.3182C16.6859 21.3182 19.0299 22.0472 20.5385 23.5052C22.0218 24.9632 22.7761 27.1806 22.7761 30.1573V38.9154H22.8268H22.8318ZM11.8918 43.0211C12.7777 43.0211 13.694 42.8591 14.666 42.5351C15.638 42.2111 16.4986 41.6138 17.2226 40.8038C17.6567 40.3064 17.9702 39.7157 18.1389 39.0774C18.3009 38.4244 18.4123 37.6448 18.4123 36.7234V35.5894C17.5946 35.3911 16.7664 35.239 15.9316 35.1338C15.0922 35.0252 14.2468 34.9694 13.4004 34.9667C11.5931 34.9667 10.2768 35.3211 9.38582 36.0501C8.49482 36.7791 8.06957 37.8068 8.06957 39.1584C8.06957 40.4241 8.38851 41.3708 9.06182 42.0238C9.70982 42.6971 10.6514 43.0211 11.8918 43.0211ZM33.5238 45.9422C33.0378 45.9422 32.7138 45.8612 32.5012 45.6688C32.2835 45.5068 32.0962 45.1322 31.9342 44.6158L25.6061 23.7229C25.483 23.3725 25.4014 23.0089 25.3631 22.6395C25.3631 22.2092 25.5757 21.9662 26.006 21.9662H28.6486C29.1549 21.9662 29.5093 22.0472 29.6966 22.2345C29.9143 22.3965 30.0763 22.7762 30.2383 23.2875L34.7641 41.1835L38.966 23.2875C39.0976 22.7509 39.2596 22.3965 39.4773 22.2345C39.8007 22.0366 40.1772 21.9429 40.5556 21.9662H42.7123C43.2185 21.9662 43.5729 22.0472 43.7855 22.2345C44.0032 22.3965 44.1905 22.7762 44.3019 23.2875L48.5544 41.4011L53.2119 23.2875C53.2985 22.8956 53.4851 22.5328 53.7536 22.2345C54.0674 22.036 54.436 21.9421 54.8066 21.9662H57.3125C57.7428 21.9662 57.9858 22.1839 57.9858 22.6395C57.9858 22.7762 57.9554 22.9129 57.9352 23.0749C57.8914 23.3047 57.8271 23.53 57.7428 23.7482L51.2476 44.6411C51.0907 45.1828 50.8983 45.5372 50.6857 45.6992C50.38 45.8947 50.0203 45.9886 49.658 45.9675H47.3444C46.8331 45.9675 46.4838 45.8865 46.2661 45.6992C46.0484 45.5068 45.8611 45.1575 45.7548 44.6158L41.5783 27.1856L37.427 44.5956C37.2954 45.1373 37.1334 45.4866 36.9208 45.6739C36.7031 45.8663 36.3234 45.9473 35.8424 45.9473H33.5238V45.9422ZM68.1412 46.6712C66.7431 46.6731 65.3498 46.5099 63.9899 46.1852C62.6433 45.8612 61.5954 45.5068 60.8917 45.1018C60.4614 44.8588 60.1678 44.5905 60.0564 44.3424C59.9537 44.1042 59.9003 43.8476 59.8994 43.5881V42.2111C59.8994 41.6441 60.1121 41.3708 60.5171 41.3708C60.6824 41.3711 60.8466 41.3985 61.0031 41.4518C61.1651 41.5074 61.4081 41.6138 61.6764 41.7251C62.5876 42.1301 63.59 42.4541 64.6379 42.6718C65.7163 42.8844 66.7642 42.9958 67.8425 42.9958C69.5435 42.9958 70.8598 42.6971 71.7761 42.1048C72.2163 41.8384 72.5779 41.46 72.8243 41.0082C73.0706 40.5564 73.1928 40.0474 73.1784 39.5331C73.1875 39.1858 73.1277 38.8401 73.0026 38.5161C72.8775 38.192 72.6895 37.8958 72.4494 37.6448C71.9684 37.1284 71.0521 36.6677 69.7308 36.2374L65.8226 35.0224C63.8583 34.3997 62.4003 33.4783 61.5144 32.2633C60.6471 31.1407 60.1738 29.7636 60.1678 28.3449C60.1678 27.2109 60.4108 26.2086 60.8917 25.3429C61.3777 24.4823 62.0257 23.7229 62.8357 23.1255C63.6457 22.5079 64.5569 22.0472 65.6353 21.7232C66.7136 21.3992 67.8425 21.2625 69.0271 21.2625C69.6245 21.2625 70.2421 21.2878 70.8344 21.3688C71.4521 21.4498 72.0191 21.5612 72.5861 21.6726C73.1227 21.8042 73.6391 21.9358 74.12 22.1029C74.606 22.2649 74.9806 22.4269 75.254 22.5889C75.5718 22.7487 75.8488 22.979 76.064 23.2622C76.2373 23.5258 76.3207 23.8383 76.3019 24.1532V25.4239C76.3019 25.9909 76.0893 26.2896 75.6843 26.2896C75.3257 26.2486 74.9784 26.1386 74.6617 25.9656C73.0337 25.2439 71.2684 24.8847 69.4878 24.9126C67.9539 24.9126 66.7389 25.1556 65.9036 25.672C65.0682 26.1782 64.6379 26.968 64.6379 28.0766C64.6379 28.8309 64.9063 29.479 65.4479 29.9953C65.9846 30.5066 66.9819 31.0179 68.4095 31.4786L72.2367 32.6936C74.1757 33.3163 75.578 34.182 76.4133 35.2907C77.2486 36.3994 77.6486 37.6701 77.6486 39.0774C77.6486 40.2418 77.4106 41.2898 76.9499 42.2111C76.4731 43.1358 75.8033 43.9472 74.9857 44.5905C74.1504 45.2638 73.1531 45.7549 71.9938 46.1042C70.7787 46.4839 69.5131 46.6712 68.1412 46.6712Z" fill="#DE5601"/>
<path fill-rule="evenodd" clip-rule="evenodd" d="M73.229 59.8033C64.3696 66.3694 51.4906 69.8574 40.4189 69.8574C24.9023 69.8574 10.9197 64.1014 0.359329 54.5332C-0.475984 53.7739 0.278329 52.7462 1.27058 53.3436C12.6966 59.9906 26.7856 64.0204 41.3656 64.0204C51.1919 64.0204 61.9953 61.965 71.938 57.7479C73.4213 57.0746 74.687 58.7199 73.229 59.8033Z" fill="#DE5601"/>
<path fill-rule="evenodd" clip-rule="evenodd" d="M76.9194 55.5863C75.7905 54.1333 69.432 54.8877 66.5514 55.237C65.6908 55.3484 65.5541 54.589 66.3337 54.022C71.3962 50.4529 79.724 51.4806 80.691 52.6703C81.663 53.8853 80.4227 62.2384 75.6791 66.2378C74.9552 66.8605 74.2565 66.5415 74.5805 65.7315C75.6538 63.0484 78.0534 57.024 76.9194 55.5913V55.5863Z" fill="#DE5601"/>
</svg>
