<svg width="61" height="49" viewBox="0 0 61 49" fill="none" xmlns="http://www.w3.org/2000/svg">
<path d="M28.2232 46.0826L42.6055 43.4993L42.7387 43.4688L35.3413 34.5277C32.8606 31.5458 30.3933 28.5523 27.9397 25.5473C27.9397 25.5037 35.5819 4.12626 35.6249 4.05207C39.853 11.4049 44.0543 18.7737 48.2287 26.1583L60.9012 48.4783L61 48.6484L13.9699 48.6441L28.2232 46.0826ZM0 43.3597C0 43.3466 3.48387 37.1983 7.74528 29.6972L15.4949 16.0521L24.5246 8.35462C29.4905 4.12626 33.5672 0.648438 33.5801 0.648438C33.548 0.777538 33.5004 0.90212 33.4383 1.01935L23.6268 22.3837L14.0042 43.3641L7.00211 43.3728C3.1488 43.3772 0 43.3728 0 43.3597Z" fill="#DE5601"/>
</svg>
