<svg width="87" height="52" viewBox="0 0 87 52" fill="none" xmlns="http://www.w3.org/2000/svg">
<path d="M86.9961 32.2043C86.894 27.1422 84.8281 22.399 81.1788 18.8483C77.5243 15.2928 72.6921 13.3347 67.5719 13.3347C67.3615 13.3347 67.1496 13.3383 66.9369 13.3454C65.1811 9.61561 62.4627 6.42799 59.0156 4.07222C55.1171 1.408 50.5456 0 45.7952 0C33.1859 0 22.8813 9.97073 22.4798 22.3767C20.4727 21.648 18.3325 21.306 16.1655 21.3761C11.8983 21.5154 7.87776 23.2681 4.84483 26.3117C1.81173 29.3551 0.0924659 33.3619 0.00359699 37.5942C-0.000481123 37.7927 -0.000990887 37.9903 0.00155794 38.1874C0.109968 45.7233 6.47964 51.8543 14.2009 51.8543H67.2509C72.5647 51.8543 77.7444 49.698 81.4618 45.9379C85.1344 42.2234 87.0998 37.3461 86.9961 32.2043ZM78.926 43.4735C75.8722 46.5623 71.6168 48.3338 67.2512 48.3338H14.201C8.41029 48.3338 3.63346 43.7596 3.55241 38.1375C3.55003 37.9813 3.55071 37.8247 3.55394 37.6673C3.69956 30.7331 9.29049 25.1227 16.2821 24.8947C16.4287 24.89 16.575 24.8875 16.7213 24.8875C19.0919 24.8875 21.4061 25.5137 23.4393 26.7092C24.0154 27.0477 24.734 27.0364 25.2988 26.6799C25.8634 26.3235 26.1778 25.6825 26.1119 25.0218C26.0498 24.4013 26.0184 23.7637 26.0184 23.1272C26.0184 12.3161 34.89 3.52068 45.7949 3.52068C53.9238 3.52068 61.1315 8.35552 64.1575 15.8381C64.4514 16.5652 65.1953 17.0114 65.9812 16.9346C66.5133 16.8822 67.0482 16.8556 67.5714 16.8556C76.1531 16.8558 83.2741 23.7728 83.4456 32.2752C83.5304 36.4628 81.9251 40.44 78.926 43.4735Z" fill="#697565" fill-opacity="0.61"/>
<path d="M67.9499 29.7648L59.3527 22.3196C58.6174 21.6831 57.5122 21.7707 56.8839 22.515C56.2555 23.2595 56.3418 24.3791 57.0768 25.0157L64.1173 31.1126L57.0768 37.2095C56.3418 37.8461 56.2553 38.9657 56.8839 39.7102C57.2303 40.1205 57.7215 40.3313 58.2155 40.3311C58.6179 40.3311 59.0226 40.1914 59.3527 39.9056L67.9499 32.4605C68.3391 32.1238 68.563 31.631 68.563 31.1124C68.563 30.5938 68.3389 30.1018 67.9499 29.7648Z" fill="#697565" fill-opacity="0.61"/>
<path d="M40.294 37.2093L33.2535 31.1126L40.294 25.016C41.0288 24.3793 41.1155 23.2595 40.4869 22.5152C39.8584 21.7708 38.7531 21.6828 38.018 22.3199L29.4209 29.7648C29.0318 30.1017 28.8079 30.5943 28.8079 31.1128C28.8079 31.6314 29.0318 32.1239 29.4209 32.4609L38.018 39.9056C38.3482 40.1913 38.7526 40.3311 39.1553 40.3311C39.6495 40.3311 40.1408 40.1205 40.4869 39.7102C41.1155 38.9652 41.0292 37.8458 40.294 37.2093Z" fill="#697565" fill-opacity="0.61"/>
<path d="M52.3994 19.0968C51.4992 18.8081 50.5314 19.2917 50.2378 20.1776L50.2107 20.2592C49.917 21.1451 50.4088 22.0977 51.3089 22.3866C51.4854 22.4432 51.6648 22.4702 51.841 22.4702C52.5629 22.4702 53.2345 22.0179 53.4706 21.3057L53.4977 21.2242C53.7914 20.3383 53.2996 19.3857 52.3994 19.0968Z" fill="#697565" fill-opacity="0.61"/>
<path d="M50.112 26.0143C49.2255 25.7127 48.2727 26.219 47.9842 27.1443L43.8714 40.3283C43.5829 41.2534 44.0676 42.2476 44.9543 42.5488C45.1278 42.6078 45.3039 42.6358 45.4771 42.6358C46.1883 42.6358 46.85 42.1628 47.0821 41.4188L51.1949 28.2348C51.4833 27.3095 50.9986 26.3155 50.112 26.0143Z" fill="#697565" fill-opacity="0.61"/>
</svg>
