<svg width="35" height="35" viewBox="0 0 35 35" fill="none" xmlns="http://www.w3.org/2000/svg">
<g clip-path="url(#clip0_11_4)">
<path d="M17.5 0C7.83398 0 0 7.83398 0 17.5C0 27.166 7.83398 35 17.5 35C27.166 35 35 27.166 35 17.5C35 7.83398 27.166 0 17.5 0ZM21.3623 14.5332L21.1641 17.1514H18.4775V26.2432H15.0869V17.1514H13.2754V14.5332H15.0869V12.7764C15.0869 12.0039 15.1074 10.8076 15.668 10.0625C16.2627 9.27637 17.0762 8.74316 18.4775 8.74316C20.7607 8.74316 21.7178 9.07129 21.7178 9.07129L21.2666 11.751C21.2666 11.751 20.5146 11.5322 19.8105 11.5322C19.1064 11.5322 18.4775 11.7852 18.4775 12.4893V14.5332H21.3623Z" fill="#697565"/>
</g>
<defs>
<clipPath id="clip0_11_4">
<rect width="35" height="35" fill="white"/>
</clipPath>
</defs>
</svg>
