<svg width="62" height="50" viewBox="0 0 62 50" fill="none" xmlns="http://www.w3.org/2000/svg">
<path d="M41.1391 13.9197L46.3354 8.46807L46.6816 6.17255C37.2127 -2.86082 22.1606 -1.83653 13.6247 8.30981C11.2537 11.1279 9.49464 14.6412 8.55664 18.2692L10.4177 17.9941L20.8099 16.1962L21.6123 15.3353C26.235 10.0088 34.0512 9.29221 39.3887 13.8242L41.1391 13.9197Z" fill="#DE5601"/>
<path d="M54.2425 17.7017C53.0055 13.0886 50.466 8.94152 46.935 5.76923L39.382 13.4182C42.5714 16.0573 44.3882 20.0332 44.3104 24.2032V25.561C48.0228 25.561 51.0326 28.6089 51.0326 32.3685C51.0326 36.1283 48.0228 39.0998 44.3104 39.0998H30.8473L29.5254 40.5531V48.7183L30.8473 49.9994H44.3104C53.9668 50.0756 61.8559 42.2863 61.9311 32.5071C61.9766 26.5796 59.0908 21.0226 54.2425 17.7017Z" fill="#DE5601"/>
<path d="M18.0834 49.9999H31.4316V39.0747H18.0834C17.1324 39.0745 16.2113 38.8656 15.3465 38.4615L13.4527 39.0556L8.0722 44.5182L7.60352 46.3774C10.6209 48.7067 14.3025 50.0165 18.0834 49.9999Z" fill="#DE5601"/>
<path d="M17.8594 14.4232C8.45436 14.4815 0.875893 22.4535 0.93195 32.2288C0.963275 37.6876 3.4161 42.8262 7.57912 46.1539L15.1745 38.2595C11.8792 36.712 10.4149 32.6812 11.9037 29.2563C13.3923 25.8314 17.2705 24.3094 20.5654 25.8566C22.0174 26.5384 23.1803 27.7473 23.8362 29.2563L31.4316 21.3619C28.1999 16.9707 23.1784 14.4034 17.8594 14.4232Z" fill="#DE5601"/>
</svg>
