<svg width="35" height="35" viewBox="0 0 35 35" fill="none" xmlns="http://www.w3.org/2000/svg">
<g clip-path="url(#clip0_11_2)">
<path d="M24.6427 22.8576C24.4907 23.2514 24.2577 23.6091 23.959 23.9075C23.6603 24.2059 23.3024 24.4384 22.9084 24.5901C22.3658 24.7911 21.7927 24.8973 21.2141 24.9041C20.252 24.9479 19.9636 24.9589 17.5263 24.9589C15.0891 24.9589 14.8006 24.9479 13.8385 24.9041C13.2593 24.8975 12.6856 24.7913 12.1425 24.5901C11.7486 24.438 11.3909 24.2051 11.0925 23.9064C10.7941 23.6077 10.5616 23.2498 10.4099 22.8557C10.2089 22.3131 10.1027 21.7401 10.0959 21.1615C10.0521 20.1994 10.0411 19.9109 10.0411 17.4737C10.0411 15.0364 10.0521 14.748 10.0959 13.7859C10.1025 13.2067 10.2087 12.633 10.4099 12.0898C10.562 11.6959 10.7949 11.3383 11.0936 11.0399C11.3923 10.7415 11.7502 10.5089 12.1443 10.3573C12.6869 10.1563 13.2599 10.0501 13.8385 10.0433C14.8006 9.99945 15.0891 9.99032 17.5263 9.99032C19.9636 9.99032 20.252 9.99945 21.2141 10.0451C21.7932 10.0511 22.3669 10.1567 22.9102 10.3573C23.3041 10.5094 23.6617 10.7423 23.9601 11.041C24.2585 11.3397 24.4911 11.6976 24.6427 12.0917C24.8437 12.6342 24.9499 13.2073 24.9567 13.7859C25.0006 14.748 25.0097 15.0364 25.0097 17.4737C25.0097 19.9109 25.0006 20.1994 24.9549 21.1615C24.9489 21.7406 24.8433 22.3143 24.6427 22.8576ZM17.5263 12.7854C16.5991 12.7854 15.6926 13.0604 14.9216 13.5755C14.1507 14.0907 13.5498 14.8229 13.1949 15.6796C12.8401 16.5362 12.7472 17.4789 12.9281 18.3883C13.109 19.2978 13.5555 20.1331 14.2112 20.7888C14.8669 21.4445 15.7022 21.891 16.6117 22.0719C17.5211 22.2528 18.4638 22.1599 19.3205 21.8051C20.1771 21.4503 20.9093 20.8493 21.4245 20.0784C21.9396 19.3074 22.2146 18.4009 22.2146 17.4737C22.2146 16.2303 21.7207 15.0378 20.8414 14.1586C19.9622 13.2793 18.7697 12.7854 17.5263 12.7854ZM22.399 21.251C22.1824 21.251 21.9706 21.3152 21.7904 21.4356C21.6103 21.5559 21.4699 21.727 21.387 21.9272C21.3041 22.1273 21.2824 22.3476 21.3247 22.5601C21.3669 22.7726 21.4712 22.9677 21.6244 23.1209C21.7776 23.2741 21.9728 23.3784 22.1853 23.4207C22.3978 23.463 22.618 23.4413 22.8182 23.3584C23.0183 23.2755 23.1894 23.1351 23.3098 22.9549C23.4302 22.7748 23.4944 22.563 23.4944 22.3464C23.4944 22.0559 23.379 21.7772 23.1736 21.5718C22.9681 21.3664 22.6895 21.251 22.399 21.251ZM20.5697 17.4737C20.5697 16.8718 20.3912 16.2834 20.0568 15.7829C19.7224 15.2824 19.2471 14.8923 18.691 14.662C18.1349 14.4316 17.5229 14.3714 16.9326 14.4888C16.3422 14.6062 15.8 14.8961 15.3743 15.3217C14.9487 15.7473 14.6589 16.2896 14.5414 16.88C14.424 17.4703 14.4843 18.0822 14.7146 18.6383C14.945 19.1944 15.335 19.6697 15.8355 20.0042C16.336 20.3386 16.9244 20.5171 17.5263 20.5171C18.3335 20.5171 19.1076 20.1964 19.6783 19.6257C20.2491 19.0549 20.5697 18.2808 20.5697 17.4737ZM17.5263 35C14.0599 35 10.6714 33.9721 7.78922 32.0463C4.90704 30.1205 2.66064 27.3832 1.33412 24.1807C0.00759384 20.9782 -0.339486 17.4542 0.336771 14.0545C1.01303 10.6547 2.68225 7.53181 5.13335 5.08071C7.58444 2.62962 10.7073 0.960396 14.1071 0.284138C17.5069 -0.392117 21.0308 -0.0450401 24.2333 1.28149C27.4359 2.60801 30.1731 4.8544 32.0989 7.73659C34.0247 10.6188 35.0526 14.0073 35.0526 17.4737C35.0526 22.122 33.2061 26.5798 29.9193 29.8667C26.6325 33.1535 22.1746 35 17.5263 35ZM26.5998 13.711C26.5844 12.9535 26.4405 12.2041 26.1745 11.4947C25.94 10.8884 25.5815 10.3378 25.1218 9.87818C24.6622 9.41854 24.1116 9.06001 23.5053 8.82555C22.7965 8.55966 22.0477 8.41583 21.2908 8.40017C20.3159 8.35636 20.0056 8.3454 17.5263 8.3454C15.0471 8.3454 14.7367 8.35636 13.7618 8.40017C13.0049 8.41583 12.2561 8.55966 11.5473 8.82555C10.941 9.06001 10.3904 9.41854 9.93081 9.87818C9.47117 10.3378 9.11264 10.8884 8.87818 11.4947C8.61229 12.2035 8.46846 12.9523 8.4528 13.7092C8.40899 14.6841 8.39803 14.9944 8.39803 17.4737C8.39803 19.9529 8.40899 20.2633 8.4528 21.2382C8.46788 21.995 8.61109 22.7438 8.87635 23.4527C9.1108 24.0595 9.46952 24.6105 9.92949 25.0705C10.3895 25.5305 10.9405 25.8892 11.5473 26.1237C12.2562 26.3889 13.005 26.5321 13.7618 26.5472C14.7367 26.591 15.0471 26.602 17.5263 26.602C20.0056 26.602 20.3159 26.591 21.2908 26.5472C22.0476 26.5321 22.7964 26.3889 23.5053 26.1237C24.1118 25.889 24.6625 25.5302 25.1221 25.0702C25.5818 24.6103 25.9402 24.0593 26.1745 23.4527C26.4403 22.7439 26.5842 21.9951 26.5998 21.2382C26.6437 20.2633 26.6546 19.9529 26.6546 17.4737C26.6546 14.9944 26.6437 14.6859 26.5998 13.711Z" fill="#697565"/>
</g>
<defs>
<clipPath id="clip0_11_2">
<rect width="35" height="35" fill="white" transform="matrix(1 0 0 -1 0 35)"/>
</clipPath>
</defs>
</svg>
