<svg width="51" height="51" viewBox="0 0 51 51" fill="none" xmlns="http://www.w3.org/2000/svg">
<path fill-rule="evenodd" clip-rule="evenodd" d="M25.5 2.84733C12.758 2.84733 2.42857 13.0877 2.42857 25.7199C2.42857 38.352 12.758 48.5924 25.5 48.5924C38.242 48.5924 48.5714 38.352 48.5714 25.7199C48.5714 13.0877 38.242 2.84733 25.5 2.84733ZM0 25.7199C0 11.758 11.4167 0.439697 25.5 0.439697C39.5833 0.439697 51 11.758 51 25.7199C51 39.6817 39.5833 51 25.5 51C11.4167 51 0 39.6817 0 25.7199Z" fill="#DE5601"/>
<path fill-rule="evenodd" clip-rule="evenodd" d="M25.5 0L26.3121 0.730338C33.0473 6.78764 36.3652 15.0953 36.3652 25.5C36.3652 35.9047 33.0473 44.2124 26.3121 50.2697L25.5 51L24.6879 50.2697C17.9526 44.2124 14.6348 35.9047 14.6348 25.5C14.6348 15.0953 17.9526 6.78764 24.6879 0.730338L25.5 0ZM25.5 3.25743C19.8951 8.71265 17.0493 16.0824 17.0493 25.5C17.0493 34.9176 19.8951 42.2874 25.5 47.7426C31.1049 42.2874 33.9507 34.9176 33.9507 25.5C33.9507 16.0824 31.1049 8.71265 25.5 3.25743Z" fill="#DE5601"/>
<path fill-rule="evenodd" clip-rule="evenodd" d="M1.33044 18.34C1.33044 17.6809 1.8715 17.1466 2.53892 17.1466H48.4611C49.1285 17.1466 49.6696 17.6809 49.6696 18.34C49.6696 18.999 49.1285 19.5333 48.4611 19.5333H2.53892C1.8715 19.5333 1.33044 18.999 1.33044 18.34ZM1.33044 32.6602C1.33044 32.0011 1.8715 31.4668 2.53892 31.4668H48.4611C49.1285 31.4668 49.6696 32.0011 49.6696 32.6602C49.6696 33.3192 49.1285 33.8535 48.4611 33.8535H2.53892C1.8715 33.8535 1.33044 33.3192 1.33044 32.6602Z" fill="#DE5601"/>
</svg>
